<?xml version="1.0" standalone="no"?><!DOCTYPE svg PUBLIC "-//W3C//DTD SVG 1.1//EN" "http://www.w3.org/Graphics/SVG/1.1/DTD/svg11.dtd"><svg t="1526708785134" class="icon" style="" viewBox="0 0 1024 1024" version="1.1" xmlns="http://www.w3.org/2000/svg" p-id="2005" xmlns:xlink="http://www.w3.org/1999/xlink" width="200" height="200"><defs><style type="text/css"></style></defs><path d="M51.28588 0.035815a48.606674 48.606674 0 0 0-36.455005 14.709915A47.967113 47.967113 0 0 0 0.12096 51.200735a50.525359 50.525359 0 0 0 14.709915 37.094568 47.327551 47.327551 0 0 0 35.815444 15.349476H972.254441a47.327551 47.327551 0 0 0 35.815444-15.349476A49.885797 49.885797 0 0 0 1023.419361 51.200735a48.606674 48.606674 0 0 0-14.709914-36.455005 47.967113 47.967113 0 0 0-36.455006-14.709915zM204.78064 307.025336a48.606674 48.606674 0 0 0-36.455005 12.79123 47.967113 47.967113 0 0 0-14.709915 36.455005 50.525359 50.525359 0 0 0 14.709915 37.094567 47.327551 47.327551 0 0 0 35.815444 15.349476h613.97904a47.327551 47.327551 0 0 0 35.815444-15.349476 49.885797 49.885797 0 0 0 14.709915-37.094567 50.525359 50.525359 0 0 0-51.16492-51.16492zM51.28588 612.735733a47.327551 47.327551 0 0 0-35.815444 15.349476 49.885797 49.885797 0 0 0-15.349476 37.094567 48.606674 48.606674 0 0 0 14.709915 38.37369 47.967113 47.967113 0 0 0 36.455005 14.709915h920.968561a48.606674 48.606674 0 0 0 36.455006-14.709915 47.967113 47.967113 0 0 0 14.709914-38.37369 50.525359 50.525359 0 0 0-14.709914-37.094567 47.327551 47.327551 0 0 0-35.815445-15.349476zM204.78064 920.364815a47.327551 47.327551 0 0 0-35.815444 15.349476 49.885797 49.885797 0 0 0-14.709914 37.094567 50.525359 50.525359 0 0 0 51.16492 51.16492h613.97904a48.606674 48.606674 0 0 0 36.455006-14.709915 47.967113 47.967113 0 0 0 14.709914-36.455005 50.525359 50.525359 0 0 0-14.709914-37.094567 47.327551 47.327551 0 0 0-35.815444-15.349476z" fill="#515151" p-id="2006"></path></svg>